#!OML:ASF H:\Terrain\Patient Classification 1\Animal2\Wednesday\Animal2.ASF
:FULLY-SPECIFIED
:DEGREES
264
root 17.2085 18.2666 8.04909 10.0017 -1.10979 -0.0142965
lowerback 0.00751928 -3.53144 0.744837
upperback 0.310798 -4.70801 -0.912627
thorax 0.177473 -2.35188 -1.35092
lowerneck -7.31437 -0.678877 10.6759
upperneck 12.8144 -0.905072 -10.3083
head 4.91479 -0.602515 -5.06546
rclavicle -3.97569e-014 -4.37326e-015
rhumerus -30.4146 16.2724 -46.6957
rradius 137.611
rwrist 4.69938
rhand -16.1435 23.1411
rfingers 7.12502
rthumb 10.0617 -6.59838
lclavicle -3.97569e-014 -4.37326e-015
lhumerus -31.1835 -29.4174 33.875
lradius 140.487
lwrist 28.3354
lhand -10.7612 6.97874
lfingers 7.12502
lthumb 15.2505 36.3966
rfemur -13.6721 -0.95833 19.1649
rtibia 21.0361
rfoot -14.9685 6.40924
rtoes 28.3129
lfemur -11.8924 -1.05916 -20.6621
ltibia 17.2359
lfoot -12.8609 2.32504
ltoes -26.1286
265
root 17.2045 18.2724 8.06625 10.1342 -0.975274 -0.0517678
lowerback 0.0422021 -3.54431 0.931029
upperback 0.184872 -4.7259 -0.915671
thorax 0.0133504 -2.36243 -1.44901
lowerneck -7.06731 -0.5159 10.612
upperneck 12.0091 -0.669043 -10.5039
head 4.65206 -0.49884 -5.08332
rclavicle -4.67144e-015 6.36111e-015
rhumerus -32.6835 18.6036 -49.7269
rradius 138.183
rwrist 5.50455
rhand -16.2247 23.4409
rfingers 7.12502
rthumb 9.98335 -6.30238
lclavicle -4.67144e-015 6.36111e-015
lhumerus -33.6388 -30.8775 37.2744
lradius 141.039
lwrist 27.5152
lhand -10.0678 6.48113
lfingers 7.12502
lthumb 15.9183 35.8469
rfemur -13.7536 -1.47887 19.2914
rtibia 21.0735
rfoot -14.878 6.54895
rtoes 27.7595
lfemur -12.0081 -1.0367 -20.5942
ltibia 17.2512
lfoot -12.6563 2.13712
ltoes -25.188
266
root 17.206 18.2815 8.08724 10.173 -0.935762 -0.0357193
lowerback 0.142918 -3.51435 1.13406
upperback 0.103573 -4.68569 -0.969283
thorax -0.145648 -2.34408 -1.60563
lowerneck -7.10254 -0.249821 10.5949
upperneck 11.4848 -0.319657 -10.6447
head 4.53735 -0.338361 -5.09629
rclavicle -2.55438e-014 -9.14409e-015
rhumerus -35.3272 21.0917 -53.4424
rradius 138.431
rwrist 6.22703
rhand -15.9788 23.7907
rfingers 7.12502
rthumb 10.2206 -5.94105
lclavicle -2.55438e-014 -9.14409e-015
lhumerus -36.5202 -32.7467 41.3522
lradius 141.486
lwrist 26.7153
lhand -9.33541 6.10122
lfingers 7.12502
lthumb 16.6235 35.4093
rfemur -13.7265 -1.96565 19.31
rtibia 21.0792
rfoot -14.9994 6.65897
rtoes 26.8312
lfemur -12.0004 -0.931454 -20.6329
ltibia 17.3238
lfoot -12.5799 1.9598
ltoes -24.8962
267
root 17.206 18.2804 8.09809 10.0951 -0.965188 -0.0325069
lowerback 0.470394 -3.47864 1.28741
upperback 0.0746148 -4.63516 -1.04804
thorax -0.375223 -2.32108 -1.74765
lowerneck -7.01095 0.0939114 10.7659
upperneck 10.7403 0.112939 -10.8088
head 4.34486 -0.12677 -5.13926
rclavicle -3.15074e-014 1.90833e-014
rhumerus -37.8528 23.3347 -57.4389
rradius 138.108
rwrist 6.98491
rhand -15.4952 24.471
rfingers 7.12502
rthumb 10.6871 -5.23723
lclavicle -3.15074e-014 1.90833e-014
lhumerus -39.5584 -34.8002 45.8225
lradius 141.561
lwrist 25.5377
lhand -9.20646 5.59562
lfingers 7.12502
lthumb 16.7477 34.8933
rfemur -13.5724 -1.97456 19.2951
rtibia 21.0182
rfoot -14.994 6.69233
rtoes 26.4301
lfemur -11.9052 -0.872059 -20.6534
ltibia 17.4139
lfoot -12.6439 1.93951
ltoes -25.758
268
root 17.2016 18.2669 8.10433 9.92342 -0.990503 -0.109216
lowerback 0.820495 -3.5102 1.4037
upperback 0.192155 -4.67287 -1.11712
thorax -0.467107 -2.33998 -1.86281
lowerneck -6.98498 0.503702 11.1974
upperneck 9.89888 0.611635 -11.1634
head 4.14489 0.115915 -5.28431
rclavicle -3.8763e-014 9.54166e-015
rhumerus -39.7815 25.2465 -61.2396
rradius 137.415
rwrist 7.88499
rhand -14.7424 25.5752
rfingers 7.12502
rthumb 11.4132 -4.09413
lclavicle -3.8763e-014 9.54166e-015
lhumerus -42.4431 -36.2794 50.0734
lradius 141.152
lwrist 23.4685
lhand -8.25764 4.99551
lfingers 7.12502
lthumb 17.6609 34.2134
rfemur -13.2745 -1.79148 19.3674
rtibia 20.8788
rfoot -14.8628 6.81253
rtoes 27.1821
lfemur -11.7727 -0.913188 -20.5437
ltibia 17.5545
lfoot -12.8496 1.88822
ltoes -25.9563
269
root 17.1942 18.2564 8.1178 9.7832 -1.09683 -0.239656
lowerback 0.95611 -3.49102 1.48091
upperback 0.394626 -4.64447 -1.13653
thorax -0.341959 -2.32296 -1.92498
lowerneck -7.11492 0.879428 11.7756
upperneck 9.13063 1.05552 -11.7437
head 3.99296 0.321281 -5.53337
rclavicle -1.25234e-014 8.74653e-015
rhumerus -41.3731 26.6547 -64.3139
rradius 136.751
rwrist 8.90731
rhand -13.7925 26.8493
rfingers 7.12502
rthumb 12.3292 -2.76723
lclavicle -1.25234e-014 8.74653e-015
lhumerus -45.0785 -37.3484 54.1103
lradius 140.52
lwrist 20.7945
lhand -5.62088 4.3823
lfingers 7.12502
lthumb 20.1968 33.3524
rfemur -13.0153 -1.45264 19.4857
rtibia 20.728
rfoot -14.8938 6.89919
rtoes 28.5401
lfemur -11.6493 -0.965907 -20.3749
ltibia 17.7344
lfoot -13.1882 2.1079
ltoes -26.6403
270
root 17.1895 18.2475 8.132 9.73765 -1.20117 -0.515706
lowerback 0.991137 -3.37507 1.7454
upperback 0.538253 -4.48661 -1.08356
thorax -0.223266 -2.24144 -2.02386
lowerneck -7.09453 1.11694 12.2715
upperneck 8.18285 1.31639 -12.3065
head 3.74439 0.439086 -5.77073
rclavicle -4.74101e-014 7.15625e-015
rhumerus -42.8103 27.4137 -66.4556
rradius 136.184
rwrist 10.0675
rhand -12.74 28.0723
rfingers 7.12502
rthumb 13.3438 -1.48045
lclavicle -4.74101e-014 7.15625e-015
lhumerus -47.2218 -38.4043 57.6858
lradius 139.79
lwrist 18.3919
lhand -5.8625 3.87583
lfingers 7.12502
lthumb 19.9645 32.8703
rfemur -12.9071 -1.04119 19.7459
rtibia 20.6441
rfoot -15.151 6.94163
rtoes 29.8882
lfemur -11.5545 -0.989749 -20.0535
ltibia 17.8379
lfoot -13.596 2.44045
ltoes -27.9002
271
root 17.1906 18.2242 8.13876 9.74095 -1.26579 -0.512217
lowerback 1.18408 -3.31518 1.76491
upperback 0.476939 -4.40382 -1.10013
thorax -0.392751 -2.20236 -2.03839
lowerneck -6.58554 1.39929 12.8554
upperneck 7.06946 1.6705 -12.9326
head 3.38264 0.618863 -6.03782
rclavicle 1.93815e-014 1.59028e-014
rhumerus -43.9849 27.8925 -67.8767
rradius 135.7
rwrist 11.3408
rhand -11.5909 29.2022
rfingers 7.12502
rthumb 14.4512 -0.27466
lclavicle 1.93815e-014 1.59028e-014
lhumerus -48.7681 -39.0051 59.999
lradius 139.047
lwrist 16.5437
lhand -4.58303 3.61438
lfingers 7.12502
lthumb 21.194 32.4758
rfemur -12.8943 -0.863265 19.6765
rtibia 20.6161
rfoot -15.5054 7.23811
rtoes 30.9153
lfemur -11.4924 -1.20162 -20.0393
ltibia 17.8609
lfoot -14.0328 2.60881
ltoes -27.4868
272
root 17.1921 18.1898 8.13769 9.60642 -1.34205 -0.388682
lowerback 1.74266 -3.33554 1.60295
upperback 0.252806 -4.4265 -1.14884
thorax -0.92757 -2.22054 -1.95332
lowerneck -5.60304 1.69861 13.2461
upperneck 6.05379 2.10707 -13.3207
head 2.98414 0.861789 -6.19725
rclavicle 4.96962e-015 2.70347e-014
rhumerus -44.7221 28.3145 -68.4842
rradius 135.452
rwrist 12.4326
rhand -10.6562 29.8085
rfingers 7.12502
rthumb 15.3517 0.398413
lclavicle 4.96962e-015 2.70347e-014
lhumerus -49.7814 -39.1299 60.9307
lradius 138.498
lwrist 15.3202
lhand -2.54518 3.22835
lfingers 7.12502
lthumb 23.1504 31.8573
rfemur -12.8206 -0.72432 19.479
rtibia 20.667
rfoot -15.8844 7.55525
rtoes 31.5149
lfemur -11.2694 -1.55589 -20.1628
ltibia 17.8221
lfoot -14.5324 2.85243
ltoes -25.929
273
root 17.192 18.1552 8.13754 9.38503 -1.40236 -0.353798
lowerback 2.21113 -3.32728 1.56965
upperback 0.151946 -4.41158 -1.21337
thorax -1.29494 -2.21705 -1.96764
lowerneck -4.83649 1.93285 13.4137
upperneck 5.28641 2.44923 -13.4204
head 2.68062 1.0576 -6.23768
rclavicle 2.51463e-014 -7.95139e-016
rhumerus -44.6188 28.2725 -67.8836
rradius 135.481
rwrist 12.7394
rhand -10.1257 30.0685
rfingers 7.12502
rthumb 15.8626 0.698228
lclavicle 2.51463e-014 -7.95139e-016
lhumerus -49.6484 -39.2111 60.4359
lradius 138.09
lwrist 14.7329
lhand -0.964523 3.07816
lfingers 7.12502
lthumb 24.6662 31.5084
rfemur -12.61 -0.63482 19.4126
rtibia 20.7655
rfoot -16.6044 7.61951
rtoes 30.4136
lfemur -10.932 -1.56771 -20.2204
ltibia 17.744
lfoot -14.9388 3.12206
ltoes -25.7918
274
root 17.1933 18.1202 8.14022 9.17023 -1.44699 -0.0878791
lowerback 2.39093 -3.26648 1.37508
upperback 0.220618 -4.33541 -1.37164
thorax -1.31934 -2.17794 -2.01591
lowerneck -4.47696 2.21273 13.894
upperneck 4.70534 2.81983 -13.8536
head 2.51496 1.25043 -6.44094
rclavicle 1.27222e-014 1.11319e-014
rhumerus -43.6618 27.6297 -66.1373
rradius 135.731
rwrist 12.0734
rhand -10.0603 30.1565
rfingers 7.12502
rthumb 15.9256 0.791234
lclavicle 1.27222e-014 1.11319e-014
lhumerus -48.2317 -39.1561 58.5299
lradius 137.775
lwrist 14.8
lhand 0.227495 2.89589
lfingers 7.12502
lthumb 25.8083 31.1652
rfemur -12.2702 -0.766123 19.1075
rtibia 20.7328
rfoot -17.5869 7.59306
rtoes 28.8384
lfemur -10.6599 -1.54294 -20.567
ltibia 17.7544
lfoot -15.1779 3.57208
ltoes -27.4998
